<svg width="28" height="28" viewBox="0 0 28 28" fill="none" xmlns="http://www.w3.org/2000/svg">
<path fill-rule="evenodd" clip-rule="evenodd" d="M27.9986 7.75528C27.9971 7.47372 27.994 7.19216 27.9862 6.9106C27.9699 6.29693 27.9333 5.6786 27.8244 5.07192C27.714 4.45592 27.5327 3.88269 27.2481 3.32269C26.9681 2.7728 26.6025 2.27035 26.1662 1.83401C25.7298 1.39768 25.2266 1.03212 24.6767 0.752116C24.1175 0.467448 23.5443 0.287002 22.929 0.175779C22.3224 0.0668894 21.7033 0.0303335 21.0896 0.0140001C20.808 0.00622227 20.5265 0.00311113 20.2449 0.00155557C19.9105 0 19.576 0 19.2416 0H8.75862C8.42417 0 8.08972 0 7.75528 0.00155557C7.47372 0.00311113 7.19216 0.00622227 6.9106 0.0140001C6.29693 0.0311113 5.67782 0.0668894 5.07115 0.176557C4.45514 0.287002 3.88269 0.468225 3.32347 0.752894C2.77357 1.0329 2.27035 1.39845 1.83401 1.83479C1.39768 2.27113 1.03212 2.77357 0.752116 3.32347C0.467448 3.88347 0.286224 4.4567 0.175779 5.0727C0.0668894 5.67937 0.0303335 6.29849 0.0140001 6.91138C0.00622227 7.19294 0.00311113 7.4745 0.00155557 7.75605C0 8.08972 0 8.42417 0 8.75862V19.2408C0 19.5752 0 19.9097 0.00155557 20.2441C0.00311113 20.5257 0.00622227 20.8073 0.0140001 21.0888C0.0303335 21.7025 0.0668894 22.3208 0.175779 22.9275C0.286224 23.5435 0.467448 24.1167 0.752116 24.6767C1.03212 25.2266 1.39768 25.7291 1.83401 26.1654C2.27035 26.6017 2.77357 26.9673 3.32347 27.2473C3.88269 27.532 4.45592 27.7124 5.07115 27.8236C5.67782 27.9325 6.29693 27.9691 6.9106 27.9854C7.19216 27.9932 7.47372 27.9963 7.75528 27.9979C8.08972 28.0002 8.42417 27.9994 8.75862 27.9994H19.2408C19.5752 27.9994 19.9097 27.9994 20.2441 27.9979C20.5257 27.9963 20.8073 27.9932 21.0888 27.9854C21.7025 27.9691 22.3216 27.9325 22.9283 27.8236C23.5443 27.7132 24.1167 27.5327 24.6759 27.2473C25.2258 26.9673 25.7291 26.6017 26.1654 26.1654C26.6017 25.7291 26.9673 25.2266 27.2473 24.6767C27.532 24.1167 27.7132 23.5435 27.8236 22.9275C27.9325 22.3208 27.9691 21.7017 27.9854 21.0888C27.9932 20.8073 27.9963 20.5257 27.9979 20.2441C28.0002 19.9097 27.9994 19.5752 27.9994 19.2408V8.75862C28.0002 8.42417 28.0002 8.08972 27.9994 7.75528H27.9986ZM20.4977 18.2203C20.4977 18.575 20.4946 18.897 20.4199 19.2517C20.3476 19.5962 20.2154 19.9206 20.0124 20.2123C19.8094 20.5031 19.5496 20.7419 19.2462 20.9208C18.939 21.102 18.6178 21.2055 18.274 21.2747C17.6285 21.4046 17.1875 21.4341 16.7721 21.3509C16.3723 21.2708 16.0332 21.0865 15.7618 20.8376C15.3597 20.4689 15.1092 19.9711 15.0548 19.4516C14.991 18.8418 15.194 18.1908 15.6513 17.7109C15.8823 17.469 16.1724 17.2777 16.5598 17.1268C16.965 16.9697 17.4122 16.8756 18.0998 16.7371L18.6435 16.6274C18.8815 16.5792 19.086 16.5186 19.2509 16.3171C19.4166 16.1141 19.4197 15.8676 19.4197 15.6233V9.45629C19.4197 8.98417 19.2081 8.85584 18.757 8.94217C18.435 9.00517 11.5166 10.4005 11.5166 10.4005C11.1262 10.4946 10.9893 10.6222 10.9893 11.1067V20.1407C10.9893 20.4954 10.9706 20.8174 10.8967 21.172C10.8244 21.5166 10.6922 21.8409 10.4892 22.1326C10.2862 22.4235 10.0264 22.6623 9.72307 22.8412C9.41584 23.0224 9.09462 23.1305 8.75084 23.1997C8.10528 23.3296 7.66428 23.3592 7.24894 23.2759C6.84916 23.1958 6.51005 23.006 6.2386 22.7579C5.83648 22.3893 5.60315 21.8915 5.54793 21.3719C5.48415 20.7621 5.67004 20.1111 6.12815 19.6312C6.35916 19.3894 6.64927 19.198 7.0366 19.0471C7.44183 18.89 7.88905 18.7959 8.57661 18.6575C8.75784 18.6209 8.93906 18.5844 9.12029 18.5478C9.35829 18.4996 9.56284 18.4389 9.72773 18.2375C9.89262 18.036 9.91207 17.7988 9.91207 17.5561V7.14005C9.91207 7.00005 9.92374 6.90516 9.93074 6.85849C9.96418 6.63916 10.0521 6.45093 10.2107 6.31793C10.343 6.20749 10.5125 6.13049 10.7295 6.0846H10.7326L19.0549 4.40459C19.1272 4.38981 19.7285 4.28325 19.7961 4.27703C20.2457 4.23814 20.4985 4.5337 20.4985 5.01281V18.2203H20.4977Z" fill="white"/>
</svg>
