<svg width="48" height="52" viewBox="0 0 48 52" fill="none" xmlns="http://www.w3.org/2000/svg">
<rect y="8" width="48" height="36" rx="16" fill="#3E70AB"/>
<path d="M33.8185 25.5C33.8222 26.8199 33.4858 28.1219 32.8367 29.3C32.067 30.7118 30.8837 31.8992 29.4193 32.7293C27.955 33.5594 26.2675 33.9994 24.5458 34C23.1059 34.0035 21.6855 33.6951 20.4003 33.1L14.1821 35L16.2549 29.3C15.6057 28.1219 15.2693 26.8199 15.273 25.5C15.2737 23.9218 15.7537 22.3749 16.6593 21.0326C17.5648 19.6903 18.8602 18.6056 20.4003 17.9C21.6855 17.305 23.1059 16.9966 24.5458 17H25.0912C27.3651 17.115 29.5127 17.9948 31.123 19.4709C32.7333 20.947 33.693 22.9157 33.8185 25V25.5Z" stroke="white" stroke-width="2" stroke-linecap="round" stroke-linejoin="round"/>
</svg>
