<svg width="49" height="48" viewBox="0 0 49 48" fill="none" xmlns="http://www.w3.org/2000/svg">
<circle cx="24.5" cy="24" r="24" fill="#00214E"/>
<path d="M22.168 25.1665C22.669 25.8363 23.3082 26.3905 24.0423 26.7916C24.7763 27.1926 25.5881 27.4311 26.4224 27.4909C27.2567 27.5506 28.0942 27.4302 28.8779 27.1379C29.6616 26.8455 30.3733 26.388 30.9646 25.7965L34.4646 22.2965C35.5272 21.1963 36.1152 19.7228 36.1019 18.1933C36.0886 16.6638 35.4751 15.2007 34.3936 14.1192C33.312 13.0376 31.849 12.4242 30.3195 12.4109C28.79 12.3976 27.3165 12.9855 26.2163 14.0481L24.2096 16.0431" stroke="white" stroke-width="2" stroke-linecap="round" stroke-linejoin="round"/>
<path d="M26.8326 22.8334C26.3316 22.1636 25.6923 21.6094 24.9583 21.2083C24.2242 20.8073 23.4125 20.5688 22.5782 20.509C21.7438 20.4493 20.9064 20.5697 20.1227 20.862C19.339 21.1544 18.6273 21.6119 18.0359 22.2034L14.5359 25.7034C13.4733 26.8036 12.8854 28.2771 12.8987 29.8066C12.9119 31.3361 13.5254 32.7992 14.607 33.8807C15.6885 34.9623 17.1516 35.5757 18.6811 35.589C20.2106 35.6023 21.6841 35.0144 22.7843 33.9518L24.7793 31.9568" stroke="white" stroke-width="2" stroke-linecap="round" stroke-linejoin="round"/>
</svg>
