<svg width="48" height="48" viewBox="0 0 48 48" fill="none" xmlns="http://www.w3.org/2000/svg">
<circle cx="24" cy="24" r="24" fill="#333D52"/>
<path d="M21.6665 25.1665C22.1675 25.8363 22.8068 26.3905 23.5408 26.7916C24.2749 27.1926 25.0866 27.4311 25.9209 27.4909C26.7553 27.5506 27.5927 27.4302 28.3764 27.1379C29.1601 26.8455 29.8718 26.388 30.4632 25.7965L33.9632 22.2965C35.0258 21.1963 35.6137 19.7228 35.6004 18.1933C35.5871 16.6638 34.9737 15.2007 33.8921 14.1192C32.8106 13.0376 31.3475 12.4242 29.818 12.4109C28.2885 12.3976 26.815 12.9855 25.7148 14.0481L23.7082 16.0431" stroke="white" stroke-width="2" stroke-linecap="round" stroke-linejoin="round"/>
<path d="M26.3336 22.8334C25.8325 22.1636 25.1933 21.6094 24.4593 21.2083C23.7252 20.8073 22.9135 20.5688 22.0791 20.509C21.2448 20.4493 20.4074 20.5697 19.6237 20.862C18.8399 21.1544 18.1283 21.6119 17.5369 22.2034L14.0369 25.7034C12.9743 26.8036 12.3863 28.2771 12.3996 29.8066C12.4129 31.3361 13.0264 32.7992 14.108 33.8807C15.1895 34.9623 16.6526 35.5757 18.1821 35.589C19.7115 35.6023 21.1851 35.0144 22.2852 33.9518L24.2802 31.9568" stroke="white" stroke-width="2" stroke-linecap="round" stroke-linejoin="round"/>
</svg>
