<svg width="24" height="24" viewBox="0 0 24 24" fill="none" xmlns="http://www.w3.org/2000/svg">
<g clip-path="url(#clip0_9034_20690)">
<path fill-rule="evenodd" clip-rule="evenodd" d="M24 7.50733C24 7.22067 24 6.934 23.9987 6.64733C23.9973 6.406 23.9947 6.16467 23.988 5.92333C23.974 5.39733 23.9427 4.86733 23.8493 4.34733C23.7547 3.81933 23.5993 3.328 23.3553 2.848C23.1153 2.37667 22.802 1.946 22.428 1.572C22.054 1.198 21.6227 0.884667 21.1513 0.644667C20.672 0.400667 20.1807 0.246 19.6533 0.150667C19.1333 0.0573333 18.6027 0.026 18.0767 0.012C17.8353 0.00533333 17.594 0.00266667 17.3527 0.00133333C17.066 0 16.7793 0 16.4927 0H7.50733C7.22067 0 6.934 0 6.64733 0.00133333C6.406 0.00266667 6.16467 0.00533333 5.92333 0.012C5.39733 0.026 4.86667 0.0573333 4.34667 0.150667C3.81867 0.245333 3.328 0.400667 2.84867 0.644667C2.37733 0.884667 1.946 1.198 1.572 1.572C1.198 1.946 0.884667 2.37667 0.644667 2.848C0.400667 3.328 0.245333 3.81933 0.150667 4.34733C0.0573333 4.86733 0.026 5.398 0.012 5.92333C0.00533333 6.16467 0.00266667 6.406 0.00133333 6.64733C0 6.934 0 7.22067 0 7.50733V16.4927C0 16.7793 0 17.066 0.00133333 17.3527C0.00266667 17.594 0.00533333 17.8353 0.012 18.0767C0.026 18.6027 0.0573333 19.1327 0.150667 19.6527C0.245333 20.1807 0.400667 20.672 0.644667 21.152C0.884667 21.6233 1.198 22.054 1.572 22.428C1.946 22.802 2.37733 23.1153 2.84867 23.3553C3.328 23.5993 3.81933 23.754 4.34667 23.8493C4.86667 23.9427 5.39733 23.974 5.92333 23.988C6.16467 23.9947 6.406 23.9973 6.64733 23.9987C6.934 24.0007 7.22067 24 7.50733 24H16.4927C16.7793 24 17.066 24 17.3527 23.9987C17.594 23.9973 17.8353 23.9947 18.0767 23.988C18.6027 23.974 19.1333 23.9427 19.6533 23.8493C20.1813 23.7547 20.672 23.5993 21.1513 23.3553C21.6227 23.1153 22.054 22.802 22.428 22.428C22.802 22.054 23.1153 21.6233 23.3553 21.152C23.5993 20.672 23.7547 20.1807 23.8493 19.6527C23.9427 19.1327 23.974 18.602 23.988 18.0767C23.9947 17.8353 23.9973 17.594 23.9987 17.3527C24.0007 17.066 24 16.7793 24 16.4927V7.50733Z" fill="url(#paint0_linear_9034_20690)"/>
<path fill-rule="evenodd" clip-rule="evenodd" d="M16.9668 3.66651C16.9088 3.67184 16.3934 3.76317 16.3314 3.77584L9.19809 5.21517H9.19542C9.00942 5.25517 8.86342 5.32051 8.75075 5.41584C8.61475 5.52984 8.53942 5.69117 8.51075 5.87917C8.50475 5.91917 8.49475 6.00051 8.49475 6.12051C8.49475 6.12051 8.49475 13.4085 8.49475 15.0485C8.49475 15.2572 8.47809 15.4598 8.33675 15.6325C8.19542 15.8052 8.02075 15.8572 7.81609 15.8985C7.66075 15.9298 7.50542 15.9612 7.35009 15.9925C6.76075 16.1112 6.37742 16.1918 6.03009 16.3265C5.69809 16.4552 5.44942 16.6192 5.25142 16.8272C4.85875 17.2385 4.69942 17.7965 4.75409 18.3192C4.80075 18.7652 5.00142 19.1918 5.34609 19.5072C5.57875 19.7205 5.86942 19.8825 6.21209 19.9512C6.56742 20.0225 6.94609 19.9978 7.49942 19.8858C7.79409 19.8265 8.07009 19.7338 8.33275 19.5785C8.59275 19.4252 8.81542 19.2205 8.98942 18.9712C9.16409 18.7212 9.27675 18.4432 9.33875 18.1478C9.40275 17.8432 9.41809 17.5678 9.41809 17.2638V9.52051C9.41809 9.10584 9.53542 8.99651 9.87009 8.91517C9.87009 8.91517 15.7994 7.71917 16.0761 7.66517C16.4621 7.59117 16.6441 7.70117 16.6441 8.10584V13.3918C16.6441 13.6012 16.6414 13.8132 16.4994 13.9865C16.3581 14.1592 16.1834 14.2112 15.9788 14.2525C15.8234 14.2838 15.6681 14.3152 15.5128 14.3465C14.9234 14.4652 14.5401 14.5458 14.1928 14.6805C13.8608 14.8092 13.6121 14.9732 13.4141 15.1812C13.0214 15.5925 12.8481 16.1505 12.9028 16.6732C12.9494 17.1192 13.1641 17.5458 13.5088 17.8612C13.7414 18.0745 14.0321 18.2318 14.3748 18.3012C14.7301 18.3725 15.1088 18.3472 15.6621 18.2358C15.9568 18.1765 16.2328 18.0878 16.4954 17.9325C16.7554 17.7792 16.9781 17.5745 17.1521 17.3252C17.3268 17.0752 17.4394 16.7972 17.5014 16.5018C17.5654 16.1972 17.5681 15.9218 17.5681 15.6178V4.29717C17.5681 3.88651 17.3514 3.63317 16.9661 3.66651H16.9668Z" fill="white"/>
</g>
<defs>
<linearGradient id="paint0_linear_9034_20690" x1="12" y1="23.9067" x2="12" y2="0.517333" gradientUnits="userSpaceOnUse">
<stop stop-color="#FA233B"/>
<stop offset="1" stop-color="#FB5C74"/>
</linearGradient>
<clipPath id="clip0_9034_20690">
<rect width="24" height="24" fill="white"/>
</clipPath>
</defs>
</svg>
