<svg width="16" height="14" viewBox="0 0 16 14" fill="none" xmlns="http://www.w3.org/2000/svg">
<path d="M14.6301 1.4574C14.247 1.07416 13.7922 0.770139 13.2916 0.562717C12.791 0.355296 12.2545 0.248535 11.7126 0.248535C11.1707 0.248535 10.6342 0.355296 10.1336 0.562717C9.63298 0.770139 9.17816 1.07416 8.79509 1.4574L8.00009 2.2524L7.20509 1.4574C6.43132 0.683635 5.38186 0.248936 4.28759 0.248936C3.19331 0.248936 2.14386 0.683635 1.37009 1.4574C0.59632 2.23117 0.161621 3.28063 0.161621 4.3749C0.161621 5.46918 0.59632 6.51864 1.37009 7.2924L2.16509 8.0874L8.00009 13.9224L13.8351 8.0874L14.6301 7.2924C15.0133 6.90934 15.3174 6.45451 15.5248 5.95392C15.7322 5.45333 15.839 4.91677 15.839 4.3749C15.839 3.83304 15.7322 3.29648 15.5248 2.79589C15.3174 2.29529 15.0133 1.84047 14.6301 1.4574Z" fill="#BF544D"/>
</svg>
