<svg width="89" height="24" viewBox="0 0 89 24" fill="none" xmlns="http://www.w3.org/2000/svg">
<g clip-path="url(#clip0_8967_3909)">
<path d="M18.888 16.605C18.744 16.467 18.522 16.629 18.603 16.806C18.738 17.097 18.81 17.4 18.81 17.712C18.81 20.031 14.874 21.909 10.017 21.909C5.16 21.909 1.224 20.028 1.224 17.712C1.224 17.4 1.296 17.097 1.431 16.806C1.515 16.626 1.29 16.467 1.146 16.605C0.414 17.307 0 18.102 0 18.951C0 21.741 4.485 24 10.017 24C15.549 24 20.034 21.738 20.034 18.951C20.034 18.105 19.62 17.307 18.888 16.605Z" fill="white"/>
<path d="M15.2582 14.7389C15.0902 14.6489 14.9222 14.8469 15.0332 15.0029C15.1832 15.2099 15.2642 15.4319 15.2642 15.6629C15.2642 16.9049 12.9152 17.9099 10.0172 17.9099C7.11918 17.9099 4.77018 16.9049 4.77018 15.6629C4.77018 15.4349 4.85118 15.2129 5.00118 15.0029C5.11218 14.8469 4.94718 14.6489 4.77618 14.7389C3.75618 15.2819 3.13818 15.9839 3.13818 16.7519C3.13818 18.4709 6.21918 19.8629 10.0172 19.8629C13.8152 19.8629 16.8962 18.4709 16.8962 16.7519C16.8962 15.9839 16.2812 15.2819 15.2582 14.7389Z" fill="white"/>
<path d="M15.8459 6.23391H10.7549C10.5479 6.23391 10.3889 6.04491 10.4309 5.83791L11.5289 0.218909C11.5649 0.0299091 11.3219 -0.0810909 11.2049 0.0719091L4.20294 9.28191C4.07694 9.44691 4.19394 9.68391 4.40094 9.68391H9.49194C9.69894 9.68391 9.85794 9.87291 9.81594 10.0799L8.71494 15.6989C8.67894 15.8879 8.92194 15.9989 9.03894 15.8459L16.0409 6.63591C16.1669 6.47091 16.0499 6.23391 15.8429 6.23391H15.8459Z" fill="white"/>
<path d="M85.5481 4.93807C86.9581 4.93807 88.1011 3.83669 88.1011 2.47807C88.1011 1.11945 86.9581 0.0180664 85.5481 0.0180664C84.1381 0.0180664 82.9951 1.11945 82.9951 2.47807C82.9951 3.83669 84.1381 4.93807 85.5481 4.93807Z" fill="white"/>
<path d="M68.7178 6.36914V10.0291H74.3248L68.4868 19.7701L80.8948 19.7641V16.1101H75.1918L80.9218 6.36914H68.7178Z" fill="white"/>
<path d="M34.4909 16.416C33.2759 16.296 32.3279 15.174 32.3279 13.401V10.029H35.9129V6.36901H32.3279V2.56201L25.7729 10.026H28.1729V14.196C28.1729 17.379 30.2369 19.965 33.4109 20.097C34.8119 20.157 36.0089 19.719 36.7169 19.131V15.717C36.1799 16.215 35.5019 16.512 34.4909 16.413V16.416Z" fill="white"/>
<path d="M65.2799 14.5501V6.36914H61.1249V12.9091C61.1249 14.7721 59.7509 16.2301 58.0589 16.2301C56.3669 16.2301 54.9929 14.7511 54.9929 12.9091V6.36914H50.8379V13.0681C50.8379 17.3671 53.4689 19.9651 57.2429 19.9651C59.1749 19.9651 60.7679 19.1731 61.7639 17.9071C62.3849 19.2211 63.7289 20.0371 65.6039 19.7671L67.5629 16.4371C66.2699 16.5631 65.2769 15.8491 65.2769 14.5501H65.2799Z" fill="white"/>
<path d="M87.6237 6.36914H83.4688V19.7701H87.6237V6.36914Z" fill="white"/>
<path d="M46.494 6.27905C46.401 6.27905 46.308 6.28505 46.215 6.29405C44.844 6.42305 43.779 7.51205 43.113 9.15005V6.36905H39.084V19.7701H43.239V12.7531C43.239 11.4601 43.641 10.7371 44.391 10.3741C44.871 10.9951 45.633 11.4001 46.491 11.4001C47.943 11.4001 49.119 10.2541 49.119 8.84105C49.119 7.42805 47.943 6.28205 46.491 6.28205L46.494 6.27905Z" fill="white"/>
</g>
<defs>
<clipPath id="clip0_8967_3909">
<rect width="88.101" height="24" fill="white"/>
</clipPath>
</defs>
</svg>
