<svg width="67" height="80" viewBox="0 0 67 80" fill="none" xmlns="http://www.w3.org/2000/svg">
<path d="M62.9607 55.35C62.485 54.8923 61.737 55.426 62.0139 56.0244C62.4627 56.9957 62.7016 58.005 62.7016 59.0411C62.7016 66.7694 49.5785 73.0351 33.3895 73.0351C17.2005 73.0351 4.07739 66.7694 4.07739 59.0411C4.07739 58.005 4.31409 56.9957 4.76515 56.0244C5.04203 55.426 4.29622 54.8945 3.81837 55.35C1.3822 57.6857 0 60.3429 0 63.1654C0 72.4612 14.9497 79.9997 33.3895 79.9997C51.8293 79.9997 66.779 72.4635 66.779 63.1654C66.779 60.3429 65.399 57.6857 62.9607 55.35Z" fill="#3E70AB"/>
<path d="M50.8578 49.1276C50.2929 48.8283 49.7369 49.4826 50.1098 50.0029C50.6077 50.6973 50.8757 51.4342 50.8757 52.2001C50.8757 56.3378 43.0447 59.6895 33.3849 59.6895C23.7251 59.6895 15.8941 56.3356 15.8941 52.2001C15.8941 51.4365 16.162 50.6973 16.66 50.0029C17.0329 49.4826 16.4769 48.8283 15.912 49.1276C12.5089 50.9363 10.4546 53.2809 10.4546 55.8399C10.4546 61.5674 20.7195 66.2075 33.3849 66.2075C46.0503 66.2075 56.313 61.5652 56.313 55.8399C56.313 53.2786 54.2586 50.9363 50.8556 49.1276H50.8578Z" fill="#4C92E5"/>
<path d="M52.8142 20.7773H35.8437C35.1493 20.7773 34.6268 20.1432 34.7607 19.4621L38.4273 0.729793C38.5523 0.0956312 37.735 -0.270575 37.342 0.243007L14.0053 30.9396C13.5878 31.4866 13.9785 32.2749 14.6685 32.2749H31.639C32.3335 32.2749 32.856 32.909 32.722 33.5901L29.0533 52.3224C28.9282 52.9566 29.7455 53.3228 30.1385 52.8092L53.4752 22.1127C53.8928 21.5656 53.502 20.7773 52.812 20.7773H52.8142Z" fill="white"/>
</svg>
