<svg width="62" height="12" viewBox="0 0 62 12" fill="none" xmlns="http://www.w3.org/2000/svg">
<path d="M0.0664062 0.0449219H2.00781L4.58496 6.93555H4.61914L7.20312 0.0449219H9.14453V9H7.64746V5.95117L7.79785 2.06836L7.75684 2.06152L5.09766 9H4.09961L1.4541 2.0752L1.41309 2.08203L1.56348 5.95117V9H0.0664062V0.0449219ZM14.9141 4.86426C14.9141 4.43132 14.8024 4.08496 14.5791 3.8252C14.3604 3.56543 14.0527 3.43555 13.6562 3.43555C13.2643 3.43555 12.9476 3.5791 12.7061 3.86621C12.4645 4.14876 12.3164 4.52246 12.2617 4.9873L12.2686 5.02148H14.9141V4.86426ZM16.2197 8.35742C15.6136 8.88151 14.8206 9.14355 13.8408 9.14355C12.861 9.14355 12.0885 8.83822 11.5234 8.22754C10.9629 7.61686 10.6826 6.82161 10.6826 5.8418V5.5957C10.6826 4.62044 10.9583 3.81608 11.5098 3.18262C12.0658 2.5446 12.7767 2.22786 13.6426 2.23242C14.5085 2.23242 15.1807 2.5013 15.6592 3.03906C16.1423 3.57227 16.3838 4.30371 16.3838 5.2334V6.11523H12.2344L12.2207 6.14941C12.248 6.69173 12.4053 7.12695 12.6924 7.45508C12.984 7.7832 13.376 7.94727 13.8682 7.94727C14.2601 7.94727 14.5973 7.90169 14.8799 7.81055C15.167 7.7194 15.4518 7.57585 15.7344 7.37988L16.2129 8.35742H16.2197ZM20.1367 8.03613C20.5241 8.03613 20.8203 7.96322 21.0254 7.81738C21.235 7.67155 21.3398 7.47559 21.3398 7.22949C21.3398 6.9834 21.2373 6.78516 21.0322 6.63477C20.8317 6.48438 20.4694 6.35221 19.9453 6.23828C19.125 6.06055 18.5166 5.81673 18.1201 5.50684C17.7236 5.19238 17.5254 4.76172 17.5254 4.21484C17.5254 3.66797 17.7624 3.20085 18.2363 2.81348C18.7148 2.42611 19.346 2.23242 20.1299 2.23242C20.9183 2.23242 21.5518 2.43066 22.0303 2.82715C22.5133 3.21908 22.7435 3.71582 22.7207 4.31738L22.707 4.3584H21.2783C21.2783 4.07129 21.1712 3.83203 20.957 3.64062C20.7428 3.44922 20.458 3.35352 20.1025 3.35352C19.7516 3.35352 19.4782 3.43327 19.2822 3.59277C19.0908 3.74772 18.9951 3.94824 18.9951 4.19434C18.9951 4.43587 19.0863 4.62272 19.2686 4.75488C19.4554 4.88704 19.8154 5.00553 20.3486 5.11035C21.2008 5.28809 21.8252 5.53646 22.2217 5.85547C22.6182 6.16992 22.8164 6.59375 22.8164 7.12695C22.8164 7.72852 22.5703 8.21615 22.0781 8.58984C21.5859 8.95898 20.9251 9.14355 20.0957 9.14355C19.2663 9.14355 18.5964 8.92936 18.0859 8.50098C17.5755 8.07259 17.3317 7.55762 17.3545 6.95605L17.3682 6.91504H18.7559C18.7741 7.28874 18.9062 7.56673 19.1523 7.74902C19.403 7.93132 19.7288 8.02246 20.1299 8.02246L20.1367 8.03613ZM26.6992 8.03613C27.0866 8.03613 27.3828 7.96322 27.5879 7.81738C27.7975 7.67155 27.9023 7.47559 27.9023 7.22949C27.9023 6.9834 27.7998 6.78516 27.5947 6.63477C27.3942 6.48438 27.0319 6.35221 26.5078 6.23828C25.6875 6.06055 25.0791 5.81673 24.6826 5.50684C24.2861 5.19238 24.0879 4.76172 24.0879 4.21484C24.0879 3.66797 24.3249 3.20085 24.7988 2.81348C25.2773 2.42611 25.9085 2.23242 26.6924 2.23242C27.4808 2.23242 28.1143 2.43066 28.5928 2.82715C29.0758 3.21908 29.306 3.71582 29.2832 4.31738L29.2695 4.3584H27.8408C27.8408 4.07129 27.7337 3.83203 27.5195 3.64062C27.3053 3.44922 27.0205 3.35352 26.665 3.35352C26.3141 3.35352 26.0407 3.43327 25.8447 3.59277C25.6533 3.74772 25.5576 3.94824 25.5576 4.19434C25.5576 4.43587 25.6488 4.62272 25.8311 4.75488C26.0179 4.88704 26.3779 5.00553 26.9111 5.11035C27.7633 5.28809 28.3877 5.53646 28.7842 5.85547C29.1807 6.16992 29.3789 6.59375 29.3789 7.12695C29.3789 7.72852 29.1328 8.21615 28.6406 8.58984C28.1484 8.95898 27.4876 9.14355 26.6582 9.14355C25.8288 9.14355 25.1589 8.92936 24.6484 8.50098C24.138 8.07259 23.8942 7.55762 23.917 6.95605L23.9307 6.91504H25.3184C25.3366 7.28874 25.4688 7.56673 25.7148 7.74902C25.9655 7.93132 26.2913 8.02246 26.6924 8.02246L26.6992 8.03613ZM34.7109 4.86426C34.7109 4.43132 34.5993 4.08496 34.376 3.8252C34.1572 3.56543 33.8496 3.43555 33.4531 3.43555C33.0612 3.43555 32.7445 3.5791 32.5029 3.86621C32.2614 4.14876 32.1133 4.52246 32.0586 4.9873L32.0654 5.02148H34.7109V4.86426ZM36.0166 8.35742C35.4105 8.88151 34.6175 9.14355 33.6377 9.14355C32.6579 9.14355 31.8854 8.83822 31.3203 8.22754C30.7598 7.61686 30.4795 6.82161 30.4795 5.8418V5.5957C30.4795 4.62044 30.7552 3.81608 31.3066 3.18262C31.8626 2.5446 32.5736 2.22786 33.4395 2.23242C34.3053 2.23242 34.9775 2.5013 35.4561 3.03906C35.9391 3.57227 36.1807 4.30371 36.1807 5.2334V6.11523H32.0312L32.0176 6.14941C32.0449 6.69173 32.2021 7.12695 32.4893 7.45508C32.7809 7.7832 33.1729 7.94727 33.665 7.94727C34.057 7.94727 34.3942 7.90169 34.6768 7.81055C34.9639 7.7194 35.2487 7.57585 35.5312 7.37988L36.0098 8.35742H36.0166ZM40.7676 2.21875C41.4785 2.21875 42.0231 2.43294 42.4014 2.86133C42.7842 3.28971 42.9756 3.94141 42.9756 4.81641V9H41.4785V4.83008C41.4785 4.33333 41.376 3.97786 41.1709 3.76367C40.9704 3.54948 40.6536 3.44238 40.2207 3.44238C39.6465 3.44238 39.1976 3.68392 38.874 4.16699V9H37.377V2.3418L38.7441 2.34863L38.833 3.3125C39.2933 2.58333 39.9382 2.21875 40.7676 2.21875ZM44.2676 6.06055C44.2676 4.98503 44.5 4.12598 44.9648 3.4834C45.4297 2.84082 46.0632 2.51953 46.8652 2.51953C47.6673 2.51953 48.2803 2.84993 48.7041 3.51074L48.8545 2.64258H50.0986V9.30078C50.0986 10.1621 49.8343 10.8252 49.3057 11.29C48.7816 11.7549 48.0296 11.9873 47.0498 11.9873C46.7217 11.9873 46.3708 11.9417 45.9971 11.8506C45.6279 11.7594 45.2907 11.6364 44.9854 11.4814L45.3066 10.3057C45.8262 10.5791 46.3799 10.7158 46.9678 10.7158C47.5557 10.7158 47.9749 10.5996 48.2256 10.3672C48.4762 10.1393 48.6016 9.78385 48.6016 9.30078V8.61719C48.1686 9.15951 47.5921 9.43066 46.8721 9.43066C46.0609 9.43066 45.4229 9.13672 44.958 8.54883C44.4932 7.96094 44.2607 7.1748 44.2607 6.19043L44.2676 6.06055ZM45.751 6.06055V6.19043C45.751 6.82389 45.8763 7.31836 46.127 7.67383C46.3776 8.0293 46.7536 8.20703 47.2549 8.20703C47.8701 8.20703 48.3167 7.94954 48.5947 7.43457V4.51562C48.3031 4.00065 47.861 3.74316 47.2686 3.74316C46.7673 3.74316 46.389 3.9528 46.1338 4.37207C45.8786 4.78678 45.751 5.34961 45.751 6.06055ZM55.6562 4.86426C55.6562 4.43132 55.5446 4.08496 55.3213 3.8252C55.1025 3.56543 54.7949 3.43555 54.3984 3.43555C54.0065 3.43555 53.6898 3.5791 53.4482 3.86621C53.2067 4.14876 53.0586 4.52246 53.0039 4.9873L53.0107 5.02148H55.6562V4.86426ZM56.9619 8.35742C56.3558 8.88151 55.5628 9.14355 54.583 9.14355C53.6032 9.14355 52.8307 8.83822 52.2656 8.22754C51.7051 7.61686 51.4248 6.82161 51.4248 5.8418V5.5957C51.4248 4.62044 51.7005 3.81608 52.252 3.18262C52.8079 2.5446 53.5189 2.22786 54.3848 2.23242C55.2507 2.23242 55.9229 2.5013 56.4014 3.03906C56.8844 3.57227 57.126 4.30371 57.126 5.2334V6.11523H52.9766L52.9629 6.14941C52.9902 6.69173 53.1475 7.12695 53.4346 7.45508C53.7262 7.7832 54.1182 7.94727 54.6104 7.94727C55.0023 7.94727 55.3395 7.90169 55.6221 7.81055C55.9092 7.7194 56.194 7.57585 56.4766 7.37988L56.9551 8.35742H56.9619ZM59.8262 9H58.3291V2.3418H59.6963L59.792 3.30566C60.1566 2.58105 60.6807 2.21875 61.3643 2.21875C61.5374 2.21875 61.6924 2.24382 61.8291 2.29395L61.6445 3.68848L61.0088 3.66797C60.4391 3.66797 60.0449 3.90267 59.8262 4.37207V9Z" fill="#00214E"/>
</svg>
