<svg width="81" height="72" viewBox="0 0 81 72" fill="none" xmlns="http://www.w3.org/2000/svg">
<circle cx="40.5" cy="24" r="24" fill="#EEF1F8"/>
<path d="M40.4987 25.1668C41.143 25.1668 41.6654 24.6445 41.6654 24.0002C41.6654 23.3558 41.143 22.8335 40.4987 22.8335C39.8544 22.8335 39.332 23.3558 39.332 24.0002C39.332 24.6445 39.8544 25.1668 40.4987 25.1668Z" fill="#00214E" stroke="#00214E" stroke-width="2" stroke-linecap="round" stroke-linejoin="round"/>
<path d="M40.4987 16.9998C41.143 16.9998 41.6654 16.4775 41.6654 15.8332C41.6654 15.1888 41.143 14.6665 40.4987 14.6665C39.8544 14.6665 39.332 15.1888 39.332 15.8332C39.332 16.4775 39.8544 16.9998 40.4987 16.9998Z" fill="#00214E" stroke="#00214E" stroke-width="2" stroke-linecap="round" stroke-linejoin="round"/>
<path d="M40.4987 33.3333C41.143 33.3333 41.6654 32.811 41.6654 32.1667C41.6654 31.5223 41.143 31 40.4987 31C39.8544 31 39.332 31.5223 39.332 32.1667C39.332 32.811 39.8544 33.3333 40.4987 33.3333Z" fill="#00214E" stroke="#00214E" stroke-width="2" stroke-linecap="round" stroke-linejoin="round"/>
<path d="M26.8691 59.0449H28.8105L31.3877 65.9355H31.4219L34.0059 59.0449H35.9473V68H34.4502V64.9512L34.6006 61.0684L34.5596 61.0615L31.9004 68H30.9023L28.2568 61.0752L28.2158 61.082L28.3662 64.9512V68H26.8691V59.0449ZM38.9414 64.7666C38.9414 65.4229 39.069 65.9538 39.3242 66.3594C39.5794 66.7604 39.9714 66.9609 40.5 66.9609C41.0286 66.9609 41.4206 66.7581 41.6758 66.3525C41.9401 65.9469 42.0723 65.4183 42.0723 64.7666V64.6367C42.0723 63.9987 41.9401 63.4769 41.6758 63.0713C41.4206 62.6566 41.0286 62.4492 40.5 62.4492C39.9714 62.4492 39.5771 62.6543 39.3174 63.0645C39.0622 63.4701 38.9346 63.9919 38.9346 64.6299L38.9414 64.7666ZM37.4443 64.6299C37.4443 63.6455 37.7155 62.8343 38.2578 62.1963C38.8001 61.5583 39.5452 61.2393 40.4932 61.2393C41.4456 61.2393 42.193 61.5583 42.7354 62.1963C43.2777 62.8206 43.5488 63.6296 43.5488 64.623V64.7529C43.5488 65.7555 43.2754 66.5713 42.7285 67.2002C42.1862 67.8245 41.4388 68.1367 40.4863 68.1367C39.5384 68.1367 38.7979 67.82 38.2646 67.1865C37.7223 66.5622 37.4512 65.751 37.4512 64.7529L37.4443 64.6299ZM46.3516 68H44.8545V61.3418H46.2217L46.3174 62.3057C46.682 61.5811 47.2061 61.2188 47.8896 61.2188C48.0628 61.2188 48.2178 61.2438 48.3545 61.2939L48.1699 62.6885L47.5342 62.668C46.9645 62.668 46.5703 62.9027 46.3516 63.3721V68ZM53.2148 63.8643C53.2148 63.4313 53.1032 63.085 52.8799 62.8252C52.6611 62.5654 52.3535 62.4355 51.957 62.4355C51.5651 62.4355 51.2484 62.5791 51.0068 62.8662C50.7653 63.1488 50.6172 63.5225 50.5625 63.9873L50.5693 64.0215H53.2148V63.8643ZM54.5205 67.3574C53.9144 67.8815 53.1214 68.1436 52.1416 68.1436C51.1618 68.1436 50.3893 67.8382 49.8242 67.2275C49.2637 66.6169 48.9834 65.8216 48.9834 64.8418V64.5957C48.9834 63.6204 49.2591 62.8161 49.8105 62.1826C50.3665 61.5446 51.0775 61.2279 51.9434 61.2324C52.8092 61.2324 53.4814 61.5013 53.96 62.0391C54.443 62.5723 54.6846 63.3037 54.6846 64.2334V65.1152H50.5352L50.5215 65.1494C50.5488 65.6917 50.7061 66.127 50.9932 66.4551C51.2848 66.7832 51.6768 66.9473 52.1689 66.9473C52.5609 66.9473 52.8981 66.9017 53.1807 66.8105C53.4678 66.7194 53.7526 66.5758 54.0352 66.3799L54.5137 67.3574H54.5205Z" fill="#00214E"/>
</svg>
