<svg width="49" height="48" viewBox="0 0 49 48" fill="none" xmlns="http://www.w3.org/2000/svg">
<circle cx="24.5" cy="24" r="24" fill="#333D52"/>
<path d="M24.5002 25.1668C25.1445 25.1668 25.6668 24.6445 25.6668 24.0002C25.6668 23.3558 25.1445 22.8335 24.5002 22.8335C23.8558 22.8335 23.3335 23.3558 23.3335 24.0002C23.3335 24.6445 23.8558 25.1668 24.5002 25.1668Z" fill="white" stroke="white" stroke-width="2" stroke-linecap="round" stroke-linejoin="round"/>
<path d="M24.5002 16.9998C25.1445 16.9998 25.6668 16.4775 25.6668 15.8332C25.6668 15.1888 25.1445 14.6665 24.5002 14.6665C23.8558 14.6665 23.3335 15.1888 23.3335 15.8332C23.3335 16.4775 23.8558 16.9998 24.5002 16.9998Z" fill="white" stroke="white" stroke-width="2" stroke-linecap="round" stroke-linejoin="round"/>
<path d="M24.5002 33.3333C25.1445 33.3333 25.6668 32.811 25.6668 32.1667C25.6668 31.5223 25.1445 31 24.5002 31C23.8558 31 23.3335 31.5223 23.3335 32.1667C23.3335 32.811 23.8558 33.3333 24.5002 33.3333Z" fill="white" stroke="white" stroke-width="2" stroke-linecap="round" stroke-linejoin="round"/>
</svg>
