<svg width="81" height="72" viewBox="0 0 81 72" fill="none" xmlns="http://www.w3.org/2000/svg">
<circle cx="40.5" cy="24" r="24" fill="#00214E"/>
<path d="M38.168 25.1665C38.669 25.8363 39.3082 26.3905 40.0423 26.7916C40.7763 27.1926 41.5881 27.4311 42.4224 27.4909C43.2567 27.5506 44.0942 27.4302 44.8779 27.1379C45.6616 26.8455 46.3733 26.388 46.9646 25.7965L50.4646 22.2965C51.5272 21.1963 52.1152 19.7228 52.1019 18.1933C52.0886 16.6638 51.4751 15.2007 50.3936 14.1192C49.312 13.0376 47.849 12.4242 46.3195 12.4109C44.79 12.3976 43.3165 12.9855 42.2163 14.0481L40.2096 16.0431" stroke="white" stroke-width="2" stroke-linecap="round" stroke-linejoin="round"/>
<path d="M42.8326 22.8334C42.3316 22.1636 41.6923 21.6094 40.9583 21.2083C40.2242 20.8073 39.4125 20.5688 38.5782 20.509C37.7438 20.4493 36.9064 20.5697 36.1227 20.862C35.339 21.1544 34.6273 21.6119 34.0359 22.2034L30.5359 25.7034C29.4733 26.8036 28.8854 28.2771 28.8987 29.8066C28.9119 31.3361 29.5254 32.7992 30.607 33.8807C31.6885 34.9623 33.1516 35.5757 34.6811 35.589C36.2106 35.6023 37.6841 35.0144 38.7843 33.9518L40.7793 31.9568" stroke="white" stroke-width="2" stroke-linecap="round" stroke-linejoin="round"/>
<path d="M18.543 65.04H19.9854L19.999 65.0811C20.0127 66.0016 19.7165 66.7422 19.1104 67.3027C18.5042 67.8633 17.6816 68.1436 16.6426 68.1436C15.6035 68.1436 14.7559 67.7949 14.0996 67.0977C13.4479 66.3958 13.1221 65.4935 13.1221 64.3906V62.6885C13.1221 61.5856 13.4456 60.6833 14.0928 59.9814C14.7399 59.2796 15.5876 58.9287 16.6357 58.9287C17.6839 58.9287 18.5111 59.2067 19.1172 59.7627C19.7233 60.3141 20.0195 61.0615 20.0059 62.0049L19.9922 62.0391H18.543C18.543 61.4284 18.3789 60.9567 18.0508 60.624C17.7227 60.2913 17.2487 60.125 16.6289 60.125C16.0137 60.125 15.5238 60.3643 15.1592 60.8428C14.7992 61.3213 14.6191 61.932 14.6191 62.6748V64.3906C14.6191 65.1426 14.8037 65.7578 15.1729 66.2363C15.542 66.7103 16.0365 66.9473 16.6562 66.9473C17.276 66.9473 17.7454 66.7855 18.0645 66.4619C18.3835 66.1338 18.543 65.6598 18.543 65.04ZM22.4873 64.7666C22.4873 65.4229 22.6149 65.9538 22.8701 66.3594C23.1253 66.7604 23.5173 66.9609 24.0459 66.9609C24.5745 66.9609 24.9665 66.7581 25.2217 66.3525C25.486 65.9469 25.6182 65.4183 25.6182 64.7666V64.6367C25.6182 63.9987 25.486 63.4769 25.2217 63.0713C24.9665 62.6566 24.5745 62.4492 24.0459 62.4492C23.5173 62.4492 23.123 62.6543 22.8633 63.0645C22.6081 63.4701 22.4805 63.9919 22.4805 64.6299L22.4873 64.7666ZM20.9902 64.6299C20.9902 63.6455 21.2614 62.8343 21.8037 62.1963C22.346 61.5583 23.0911 61.2393 24.0391 61.2393C24.9915 61.2393 25.7389 61.5583 26.2812 62.1963C26.8236 62.8206 27.0947 63.6296 27.0947 64.623V64.7529C27.0947 65.7555 26.8213 66.5713 26.2744 67.2002C25.7321 67.8245 24.9847 68.1367 24.0322 68.1367C23.0843 68.1367 22.3438 67.82 21.8105 67.1865C21.2682 66.5622 20.9971 65.751 20.9971 64.7529L20.9902 64.6299ZM34.2383 65.0469V65.1768C34.2383 66.1611 34.0104 66.9473 33.5547 67.5352C33.099 68.1185 32.4814 68.4102 31.7021 68.4102C30.9274 68.4102 30.3281 68.1436 29.9043 67.6104V70.8438H28.4072V61.6289H29.6719L29.8154 62.4629C30.2575 61.8249 30.875 61.5059 31.668 61.5059C32.4655 61.5059 33.0921 61.8271 33.5479 62.4697C34.0081 63.1077 34.2383 63.9668 34.2383 65.0469ZM32.7549 65.1768V65.0469C32.7549 64.3405 32.6227 63.7777 32.3584 63.3584C32.0986 62.9391 31.7204 62.7295 31.2236 62.7295C30.6221 62.7295 30.1823 62.9824 29.9043 63.4883V66.4961C30.1823 66.9792 30.6243 67.2207 31.2305 67.2207C31.7318 67.2207 32.11 67.0384 32.3652 66.6738C32.625 66.3092 32.7549 65.8102 32.7549 65.1768ZM36.1797 70.9873C35.9974 70.9873 35.7285 70.9463 35.373 70.8643L35.5371 69.709C35.8288 69.7272 35.9792 69.7363 35.9883 69.7363C36.4303 69.7363 36.7767 69.431 37.0273 68.8203L37.2734 68.2188L34.8535 61.6426H36.4873L37.7588 65.6279L37.9092 66.291H37.9434L39.4062 61.6426H41.04L38.2852 69.3057C38.0846 69.8343 37.8203 70.2467 37.4922 70.543C37.1641 70.8392 36.7266 70.9873 36.1797 70.9873ZM47.1719 59.0449V66.8037H51.2871V68H45.6748V59.0449H47.1719ZM53.8984 61.3418V68H52.4082V61.3418H53.8984ZM53.8984 58.4023V59.7148H52.4082V58.4023H53.8984ZM58.9502 61.2188C59.6611 61.2188 60.2057 61.4329 60.584 61.8613C60.9668 62.2897 61.1582 62.9414 61.1582 63.8164V68H59.6611V63.8301C59.6611 63.3333 59.5586 62.9779 59.3535 62.7637C59.153 62.5495 58.8363 62.4424 58.4033 62.4424C57.8291 62.4424 57.3802 62.6839 57.0566 63.167V68H55.5596V61.3418L56.9268 61.3486L57.0156 62.3125C57.4759 61.5833 58.1208 61.2188 58.9502 61.2188ZM64.207 65.0879V68H62.7168V58.4023H64.207V63.8916H64.8291L66.5107 61.3418H68.2676L66.0732 64.3701L68.5957 68H66.8594L64.877 65.0879H64.207Z" fill="#00214E"/>
</svg>
