<svg width="81" height="72" viewBox="0 0 81 72" fill="none" xmlns="http://www.w3.org/2000/svg">
<path d="M16.5 16.4571C16.5 10.6966 16.5 7.81633 17.6211 5.6161C18.6072 3.68072 20.1807 2.1072 22.1161 1.12108C24.3163 0 27.1966 0 32.9571 0H48.0429C53.8034 0 56.6837 0 58.8839 1.12108C60.8193 2.1072 62.3928 3.68072 63.3789 5.6161C64.5 7.81633 64.5 10.6966 64.5 16.4571V31.5429C64.5 37.3034 64.5 40.1837 63.3789 42.3839C62.3928 44.3193 60.8193 45.8928 58.8839 46.8789C56.6837 48 53.8034 48 48.0429 48H32.9571C27.1966 48 24.3163 48 22.1161 46.8789C20.1807 45.8928 18.6072 44.3193 17.6211 42.3839C16.5 40.1837 16.5 37.3034 16.5 31.5429V16.4571Z" fill="url(#paint0_linear_4159_27709)"/>
<path d="M40.5 36.25C49.3366 36.25 56.5 30.3737 56.5 23.125C56.5 15.8763 49.3366 10 40.5 10C31.6634 10 24.5 15.8763 24.5 23.125C24.5 27.7196 27.378 31.7628 31.7359 34.1077C31.59 35.2747 31.1515 36.8322 29.8333 38C32.326 37.5583 34.3154 36.6708 35.8015 35.675C37.2872 36.0488 38.8649 36.25 40.5 36.25Z" fill="white"/>
<path d="M10.0664 59.0449H12.0078L14.585 65.9355H14.6191L17.2031 59.0449H19.1445V68H17.6475V64.9512L17.7979 61.0684L17.7568 61.0615L15.0977 68H14.0996L11.4541 61.0752L11.4131 61.082L11.5635 64.9512V68H10.0664V59.0449ZM24.9141 63.8643C24.9141 63.4313 24.8024 63.085 24.5791 62.8252C24.3604 62.5654 24.0527 62.4355 23.6562 62.4355C23.2643 62.4355 22.9476 62.5791 22.7061 62.8662C22.4645 63.1488 22.3164 63.5225 22.2617 63.9873L22.2686 64.0215H24.9141V63.8643ZM26.2197 67.3574C25.6136 67.8815 24.8206 68.1436 23.8408 68.1436C22.861 68.1436 22.0885 67.8382 21.5234 67.2275C20.9629 66.6169 20.6826 65.8216 20.6826 64.8418V64.5957C20.6826 63.6204 20.9583 62.8161 21.5098 62.1826C22.0658 61.5446 22.7767 61.2279 23.6426 61.2324C24.5085 61.2324 25.1807 61.5013 25.6592 62.0391C26.1423 62.5723 26.3838 63.3037 26.3838 64.2334V65.1152H22.2344L22.2207 65.1494C22.248 65.6917 22.4053 66.127 22.6924 66.4551C22.984 66.7832 23.376 66.9473 23.8682 66.9473C24.2601 66.9473 24.5973 66.9017 24.8799 66.8105C25.167 66.7194 25.4518 66.5758 25.7344 66.3799L26.2129 67.3574H26.2197ZM30.1367 67.0361C30.5241 67.0361 30.8203 66.9632 31.0254 66.8174C31.235 66.6715 31.3398 66.4756 31.3398 66.2295C31.3398 65.9834 31.2373 65.7852 31.0322 65.6348C30.8317 65.4844 30.4694 65.3522 29.9453 65.2383C29.125 65.0605 28.5166 64.8167 28.1201 64.5068C27.7236 64.1924 27.5254 63.7617 27.5254 63.2148C27.5254 62.668 27.7624 62.2008 28.2363 61.8135C28.7148 61.4261 29.346 61.2324 30.1299 61.2324C30.9183 61.2324 31.5518 61.4307 32.0303 61.8271C32.5133 62.2191 32.7435 62.7158 32.7207 63.3174L32.707 63.3584H31.2783C31.2783 63.0713 31.1712 62.832 30.957 62.6406C30.7428 62.4492 30.458 62.3535 30.1025 62.3535C29.7516 62.3535 29.4782 62.4333 29.2822 62.5928C29.0908 62.7477 28.9951 62.9482 28.9951 63.1943C28.9951 63.4359 29.0863 63.6227 29.2686 63.7549C29.4554 63.887 29.8154 64.0055 30.3486 64.1104C31.2008 64.2881 31.8252 64.5365 32.2217 64.8555C32.6182 65.1699 32.8164 65.5938 32.8164 66.127C32.8164 66.7285 32.5703 67.2161 32.0781 67.5898C31.5859 67.959 30.9251 68.1436 30.0957 68.1436C29.2663 68.1436 28.5964 67.9294 28.0859 67.501C27.5755 67.0726 27.3317 66.5576 27.3545 65.9561L27.3682 65.915H28.7559C28.7741 66.2887 28.9062 66.5667 29.1523 66.749C29.403 66.9313 29.7288 67.0225 30.1299 67.0225L30.1367 67.0361ZM36.6992 67.0361C37.0866 67.0361 37.3828 66.9632 37.5879 66.8174C37.7975 66.6715 37.9023 66.4756 37.9023 66.2295C37.9023 65.9834 37.7998 65.7852 37.5947 65.6348C37.3942 65.4844 37.0319 65.3522 36.5078 65.2383C35.6875 65.0605 35.0791 64.8167 34.6826 64.5068C34.2861 64.1924 34.0879 63.7617 34.0879 63.2148C34.0879 62.668 34.3249 62.2008 34.7988 61.8135C35.2773 61.4261 35.9085 61.2324 36.6924 61.2324C37.4808 61.2324 38.1143 61.4307 38.5928 61.8271C39.0758 62.2191 39.306 62.7158 39.2832 63.3174L39.2695 63.3584H37.8408C37.8408 63.0713 37.7337 62.832 37.5195 62.6406C37.3053 62.4492 37.0205 62.3535 36.665 62.3535C36.3141 62.3535 36.0407 62.4333 35.8447 62.5928C35.6533 62.7477 35.5576 62.9482 35.5576 63.1943C35.5576 63.4359 35.6488 63.6227 35.8311 63.7549C36.0179 63.887 36.3779 64.0055 36.9111 64.1104C37.7633 64.2881 38.3877 64.5365 38.7842 64.8555C39.1807 65.1699 39.3789 65.5938 39.3789 66.127C39.3789 66.7285 39.1328 67.2161 38.6406 67.5898C38.1484 67.959 37.4876 68.1436 36.6582 68.1436C35.8288 68.1436 35.1589 67.9294 34.6484 67.501C34.138 67.0726 33.8942 66.5576 33.917 65.9561L33.9307 65.915H35.3184C35.3366 66.2887 35.4688 66.5667 35.7148 66.749C35.9655 66.9313 36.2913 67.0225 36.6924 67.0225L36.6992 67.0361ZM44.7109 63.8643C44.7109 63.4313 44.5993 63.085 44.376 62.8252C44.1572 62.5654 43.8496 62.4355 43.4531 62.4355C43.0612 62.4355 42.7445 62.5791 42.5029 62.8662C42.2614 63.1488 42.1133 63.5225 42.0586 63.9873L42.0654 64.0215H44.7109V63.8643ZM46.0166 67.3574C45.4105 67.8815 44.6175 68.1436 43.6377 68.1436C42.6579 68.1436 41.8854 67.8382 41.3203 67.2275C40.7598 66.6169 40.4795 65.8216 40.4795 64.8418V64.5957C40.4795 63.6204 40.7552 62.8161 41.3066 62.1826C41.8626 61.5446 42.5736 61.2279 43.4395 61.2324C44.3053 61.2324 44.9775 61.5013 45.4561 62.0391C45.9391 62.5723 46.1807 63.3037 46.1807 64.2334V65.1152H42.0312L42.0176 65.1494C42.0449 65.6917 42.2021 66.127 42.4893 66.4551C42.7809 66.7832 43.1729 66.9473 43.665 66.9473C44.057 66.9473 44.3942 66.9017 44.6768 66.8105C44.9639 66.7194 45.2487 66.5758 45.5312 66.3799L46.0098 67.3574H46.0166ZM50.7676 61.2188C51.4785 61.2188 52.0231 61.4329 52.4014 61.8613C52.7842 62.2897 52.9756 62.9414 52.9756 63.8164V68H51.4785V63.8301C51.4785 63.3333 51.376 62.9779 51.1709 62.7637C50.9704 62.5495 50.6536 62.4424 50.2207 62.4424C49.6465 62.4424 49.1976 62.6839 48.874 63.167V68H47.377V61.3418L48.7441 61.3486L48.833 62.3125C49.2933 61.5833 49.9382 61.2188 50.7676 61.2188ZM54.2676 65.0605C54.2676 63.985 54.5 63.126 54.9648 62.4834C55.4297 61.8408 56.0632 61.5195 56.8652 61.5195C57.6673 61.5195 58.2803 61.8499 58.7041 62.5107L58.8545 61.6426H60.0986V68.3008C60.0986 69.1621 59.8343 69.8252 59.3057 70.29C58.7816 70.7549 58.0296 70.9873 57.0498 70.9873C56.7217 70.9873 56.3708 70.9417 55.9971 70.8506C55.6279 70.7594 55.2907 70.6364 54.9854 70.4814L55.3066 69.3057C55.8262 69.5791 56.3799 69.7158 56.9678 69.7158C57.5557 69.7158 57.9749 69.5996 58.2256 69.3672C58.4762 69.1393 58.6016 68.7839 58.6016 68.3008V67.6172C58.1686 68.1595 57.5921 68.4307 56.8721 68.4307C56.0609 68.4307 55.4229 68.1367 54.958 67.5488C54.4932 66.9609 54.2607 66.1748 54.2607 65.1904L54.2676 65.0605ZM55.751 65.0605V65.1904C55.751 65.8239 55.8763 66.3184 56.127 66.6738C56.3776 67.0293 56.7536 67.207 57.2549 67.207C57.8701 67.207 58.3167 66.9495 58.5947 66.4346V63.5156C58.3031 63.0007 57.861 62.7432 57.2686 62.7432C56.7673 62.7432 56.389 62.9528 56.1338 63.3721C55.8786 63.7868 55.751 64.3496 55.751 65.0605ZM65.6562 63.8643C65.6562 63.4313 65.5446 63.085 65.3213 62.8252C65.1025 62.5654 64.7949 62.4355 64.3984 62.4355C64.0065 62.4355 63.6898 62.5791 63.4482 62.8662C63.2067 63.1488 63.0586 63.5225 63.0039 63.9873L63.0107 64.0215H65.6562V63.8643ZM66.9619 67.3574C66.3558 67.8815 65.5628 68.1436 64.583 68.1436C63.6032 68.1436 62.8307 67.8382 62.2656 67.2275C61.7051 66.6169 61.4248 65.8216 61.4248 64.8418V64.5957C61.4248 63.6204 61.7005 62.8161 62.252 62.1826C62.8079 61.5446 63.5189 61.2279 64.3848 61.2324C65.2507 61.2324 65.9229 61.5013 66.4014 62.0391C66.8844 62.5723 67.126 63.3037 67.126 64.2334V65.1152H62.9766L62.9629 65.1494C62.9902 65.6917 63.1475 66.127 63.4346 66.4551C63.7262 66.7832 64.1182 66.9473 64.6104 66.9473C65.0023 66.9473 65.3395 66.9017 65.6221 66.8105C65.9092 66.7194 66.194 66.5758 66.4766 66.3799L66.9551 67.3574H66.9619ZM69.8262 68H68.3291V61.3418H69.6963L69.792 62.3057C70.1566 61.5811 70.6807 61.2188 71.3643 61.2188C71.5374 61.2188 71.6924 61.2438 71.8291 61.2939L71.6445 62.6885L71.0088 62.668C70.4391 62.668 70.0449 62.9027 69.8262 63.3721V68Z" fill="#00214E"/>
<defs>
<linearGradient id="paint0_linear_4159_27709" x1="40.5" y1="0" x2="40.5" y2="48" gradientUnits="userSpaceOnUse">
<stop stop-color="#5AF575"/>
<stop offset="1" stop-color="#13BD2C"/>
</linearGradient>
</defs>
</svg>
