<svg width="24" height="30" viewBox="0 0 24 30" fill="none" xmlns="http://www.w3.org/2000/svg">
<path d="M22.6277 20.3915C22.4568 20.227 22.1879 20.4188 22.2874 20.6339C22.4487 20.983 22.5346 21.3457 22.5346 21.7181C22.5346 24.4956 17.8182 26.7474 12 26.7474C6.18177 26.7474 1.46539 24.4956 1.46539 21.7181C1.46539 21.3457 1.55046 20.983 1.71257 20.6339C1.81208 20.4188 1.54404 20.2278 1.3723 20.3915C0.496756 21.2309 0 22.1859 0 23.2003C0 26.5412 5.37283 29.2505 12 29.2505C18.6272 29.2505 24 26.542 24 23.2003C24 22.1859 23.504 21.2309 22.6277 20.3915Z" fill="#3E70AB"/>
<path d="M18.278 18.1545C18.075 18.047 17.8752 18.2821 18.0092 18.4691C18.1881 18.7187 18.2844 18.9835 18.2844 19.2588C18.2844 20.7458 15.47 21.9504 11.9983 21.9504C8.52667 21.9504 5.71225 20.745 5.71225 19.2588C5.71225 18.9843 5.80855 18.7187 5.98751 18.4691C6.12153 18.2821 5.9217 18.047 5.71867 18.1545C4.49564 18.8045 3.75732 19.6472 3.75732 20.5669C3.75732 22.6253 7.44648 24.2929 11.9983 24.2929C16.5502 24.2929 20.2386 22.6245 20.2386 20.5669C20.2386 19.6464 19.5003 18.8045 18.2772 18.1545H18.278Z" fill="#4C92E5"/>
<path d="M18.9811 7.96579H12.882C12.6324 7.96579 12.4447 7.73788 12.4928 7.49311L13.8105 0.760819C13.8555 0.532904 13.5618 0.401292 13.4205 0.58587L5.03344 11.618C4.88337 11.8147 5.02381 12.0979 5.27178 12.0979H11.3709C11.6205 12.0979 11.8083 12.3259 11.7601 12.5706L10.4416 19.3029C10.3966 19.5308 10.6904 19.6624 10.8316 19.4779L19.2187 8.4457C19.3688 8.24908 19.2283 7.96579 18.9803 7.96579H18.9811Z" fill="white"/>
</svg>
