<svg width="28" height="28" viewBox="0 0 28 28" fill="none" xmlns="http://www.w3.org/2000/svg">
<path d="M14 0C6.26773 0 0 6.26773 0 14C0 21.7323 6.26773 28 14 28C21.7323 28 28 21.7323 28 14C28 6.26773 21.7323 0 14 0ZM20.4215 20.1942C20.1708 20.6071 19.6324 20.7358 19.2212 20.4851C15.9326 18.4755 11.7948 18.0225 6.92142 19.1359C6.45164 19.2429 5.98352 18.9487 5.87652 18.4805C5.76953 18.0107 6.0621 17.5426 6.53356 17.4356C11.8667 16.2169 16.4409 16.7418 20.1323 18.9955C20.5436 19.2462 20.674 19.7846 20.4215 20.1958V20.1942ZM22.1352 16.3824C21.8192 16.8956 21.1471 17.0578 20.6339 16.7418C16.8722 14.4297 11.1345 13.7593 6.68235 15.1101C6.10557 15.284 5.49534 14.9596 5.3198 14.3829C5.14593 13.8061 5.47194 13.1975 6.04705 13.022C11.1328 11.4789 17.454 12.2262 21.7741 14.8827C22.2873 15.1987 22.4495 15.8708 22.1335 16.384L22.1352 16.3824ZM22.2823 12.4134C17.77 9.73346 10.3253 9.4877 6.01696 10.7951C5.32482 11.0057 4.59422 10.6145 4.38357 9.92238C4.17459 9.23024 4.56413 8.49964 5.25627 8.28899C10.2016 6.78768 18.4237 7.07858 23.6181 10.1615C24.24 10.5309 24.444 11.3351 24.0762 11.9553C23.7067 12.5773 22.9026 12.7829 22.2823 12.4134Z" fill="white"/>
</svg>
