<svg width="16" height="17" viewBox="0 0 16 17" fill="none" xmlns="http://www.w3.org/2000/svg">
<path d="M7.30471 1.17263C7.69238 0.797595 8.30762 0.797595 8.6953 1.17263L9.62638 2.07336C9.84806 2.28782 10.1563 2.38798 10.4617 2.34478L11.7444 2.16335C12.2785 2.08781 12.7762 2.44944 12.8694 2.98072L13.0933 4.2567C13.1465 4.5605 13.3371 4.82272 13.6095 4.96728L14.7539 5.57445C15.2304 5.82726 15.4205 6.41239 15.1836 6.89698L14.6147 8.06083C14.4792 8.33794 14.4792 8.66206 14.6147 8.93917L15.1836 10.103C15.4205 10.5876 15.2304 11.1727 14.7539 11.4255L13.6095 12.0327C13.3371 12.1773 13.1465 12.4395 13.0933 12.7433L12.8694 14.0193C12.7762 14.5506 12.2785 14.9122 11.7444 14.8367L10.4617 14.6552C10.1563 14.612 9.84806 14.7122 9.62638 14.9266L8.6953 15.8274C8.30762 16.2024 7.69238 16.2024 7.30471 15.8274L6.37362 14.9266C6.15194 14.7122 5.84369 14.612 5.53828 14.6552L4.25558 14.8367C3.72151 14.9122 3.22377 14.5506 3.13057 14.0193L2.90675 12.7433C2.85346 12.4395 2.66295 12.1773 2.39048 12.0327L1.24611 11.4255C0.769638 11.1727 0.579517 10.5876 0.816398 10.103L1.38532 8.93917C1.52078 8.66206 1.52078 8.33794 1.38532 8.06083L0.816398 6.89698C0.579517 6.41239 0.769638 5.82726 1.24611 5.57445L2.39048 4.96728C2.66295 4.82272 2.85346 4.5605 2.90675 4.2567L3.13057 2.98072C3.22377 2.44944 3.72151 2.08781 4.25559 2.16335L5.53828 2.34478C5.84369 2.38798 6.15194 2.28782 6.37362 2.07336L7.30471 1.17263Z" fill="#2E76DD"/>
<path d="M10.6673 6.5L7.00065 10.1667L5.33398 8.5" stroke="white" stroke-linecap="round" stroke-linejoin="round"/>
</svg>
