<svg width="120" height="129" viewBox="0 0 120 129" fill="none" xmlns="http://www.w3.org/2000/svg">
<path d="M92.639 61.0925C92.114 60.5873 91.2884 61.1763 91.594 61.8368C92.0894 62.9089 92.3531 64.023 92.3531 65.1665C92.3531 73.6966 77.8685 80.6123 60 80.6123C42.1315 80.6123 27.6469 73.6966 27.6469 65.1665C27.6469 64.023 27.9081 62.9089 28.406 61.8368C28.7116 61.1763 27.8884 60.5897 27.361 61.0925C24.6721 63.6705 23.1465 66.6034 23.1465 69.7187C23.1465 79.9789 39.6471 88.2995 60 88.2995C80.3528 88.2995 96.8535 79.9814 96.8535 69.7187C96.8535 66.6034 95.3304 63.6705 92.639 61.0925Z" fill="#3E70AB"/>
<path d="M79.2804 54.2238C78.6569 53.8935 78.0432 54.6156 78.4548 55.1899C79.0044 55.9564 79.3001 56.7697 79.3001 57.6151C79.3001 62.182 70.6567 65.8814 59.9948 65.8814C49.3328 65.8814 40.6894 62.1796 40.6894 57.6151C40.6894 56.7722 40.9851 55.9564 41.5347 55.1899C41.9463 54.6156 41.3326 53.8935 40.7091 54.2238C36.953 56.2201 34.6855 58.808 34.6855 61.6324C34.6855 67.9542 46.0154 73.0757 59.9948 73.0757C73.9741 73.0757 85.3015 67.9517 85.3015 61.6324C85.3015 58.8055 83.034 56.2201 79.278 54.2238H79.2804Z" fill="#4C92E5"/>
<path d="M81.4398 22.9329H62.7087C61.9422 22.9329 61.3655 22.2329 61.5134 21.4812L65.5603 0.805505C65.6983 0.105552 64.7962 -0.298646 64.3625 0.268218L38.6047 34.1494C38.1438 34.7532 38.5751 35.6232 39.3367 35.6232H58.0678C58.8343 35.6232 59.411 36.3232 59.2632 37.0749L55.2138 57.7506C55.0758 58.4506 55.9778 58.8548 56.4116 58.2879L82.1694 24.4067C82.6302 23.8029 82.1989 22.9329 81.4374 22.9329H81.4398Z" fill="white"/>
<path d="M115.083 99.7689C117.798 99.7689 120 97.6492 120 95.0343C120 92.4195 117.798 90.2998 115.083 90.2998C112.367 90.2998 110.166 92.4195 110.166 95.0343C110.166 97.6492 112.367 99.7689 115.083 99.7689Z" fill="white"/>
<path d="M82.6804 102.526V109.573H93.4779L82.2393 128.326L106.124 128.316V121.28H95.1465L106.181 102.526H82.6804Z" fill="white"/>
<path d="M16.789 121.868C14.4476 121.639 12.6213 119.478 12.6213 116.064V109.57H19.5223V102.524H12.6213V95.1987L0 109.572H4.62117V117.602C4.62117 123.727 8.59414 128.708 14.7064 128.964C17.4052 129.077 19.7071 128.235 21.0725 127.106V120.53C20.0374 121.489 18.7361 122.058 16.7865 121.868H16.789Z" fill="white"/>
<path d="M76.0636 118.281V102.525H68.0635V115.117C68.0635 118.703 65.4214 121.507 62.1632 121.507C58.9049 121.507 56.2629 118.658 56.2629 115.114V102.525H48.2627V115.425C48.2627 123.703 53.3275 128.704 60.5957 128.704C64.3148 128.704 67.3832 127.176 69.3007 124.741C70.4961 127.272 73.0839 128.84 76.6921 128.325L80.4655 121.914C77.9787 122.153 76.0636 120.785 76.0636 118.279V118.281Z" fill="white"/>
<path d="M119.083 102.526H111.083V128.326H119.083V102.526Z" fill="white"/>
<path d="M39.8946 102.352C39.7147 102.352 39.5348 102.361 39.3598 102.379C36.7226 102.628 34.6696 104.725 33.388 107.877V102.524H25.6318V128.324H33.632V114.813C33.632 112.323 34.4059 110.933 35.8502 110.231C36.7744 111.429 38.2384 112.205 39.8946 112.205C42.6895 112.205 44.9545 109.999 44.9545 107.276C44.9545 104.553 42.6895 102.347 39.8946 102.347V102.352Z" fill="white"/>
</svg>
